<svg width="24" height="24" viewBox="0 0 24 24" fill="none" xmlns="http://www.w3.org/2000/svg">
<g clip-path="url(#clip0_1677_4085)">
<path d="M8.31364 18.0201H1.51709V20.384H9.90223C9.24078 19.702 8.69998 18.9027 8.31364 18.0201Z" fill="#EEBF00"/>
<path d="M9.93551 20.4181C9.92436 20.4068 9.91325 20.3954 9.90214 20.384H1.51709H0.691528V22.8162H15.5588V22.8151C13.3568 22.7913 11.3685 21.8784 9.93551 20.4181Z" fill="#EEBF00"/>
<path d="M7.64495 14.8144C7.64495 14.2698 7.69961 13.7381 7.80325 13.2241H0.934326V15.5879H7.68231C7.65789 15.3333 7.64495 15.0754 7.64495 14.8144Z" fill="#EEBF00"/>
<path d="M8.29866 17.986C7.98 17.2488 7.76873 16.4543 7.6853 15.6221C7.68417 15.6108 7.68337 15.5993 7.68225 15.588H0.934312H0.351562V18.0202H1.51706H8.31361C8.30864 18.0088 8.30358 17.9974 8.29866 17.986Z" fill="#EEBF00"/>
<path d="M0.351562 10.7919V13.2241H0.934312H7.80323C7.80553 13.2127 7.80773 13.2014 7.81008 13.19C7.98694 12.3324 8.30119 11.5252 8.72845 10.7919H0.351562Z" fill="#EEBF00"/>
<path d="M10.9422 8.34167H1.75989V10.7739H8.73915C9.29889 9.81894 10.0509 8.99061 10.9422 8.34167Z" fill="#EEBF00"/>
<path d="M9.93549 20.4182C9.92434 20.4068 9.91323 20.3954 9.90212 20.384C9.24076 19.7019 8.69991 18.9026 8.31352 18.0201C8.30855 18.0087 8.30349 17.9974 8.29857 17.9859C7.97991 17.2487 7.76865 16.4543 7.68521 15.6221C7.68409 15.6107 7.68329 15.5993 7.68216 15.5879C7.65774 15.3333 7.6448 15.0753 7.6448 14.8143C7.6448 14.2698 7.69946 13.738 7.8031 13.224C7.8054 13.2126 7.8076 13.2012 7.80994 13.1898C7.9868 12.3323 8.30105 11.5251 8.72832 10.7918H7.26948C6.90432 11.5509 6.63971 12.3675 6.49196 13.224C6.4028 13.7408 6.35583 14.272 6.35583 14.8143C6.35583 15.0749 6.36713 15.3328 6.38813 15.5879C6.45807 16.436 6.64144 17.2519 6.92387 18.0201C7.23774 18.8739 7.67344 19.6689 8.20984 20.384C8.9438 21.3624 9.86663 22.1908 10.9239 22.8162H15.5586V22.8151C13.3568 22.7913 11.3685 21.8784 9.93549 20.4182Z" fill="#CBA400"/>
<path d="M10.9422 8.34167H8.98256C8.29237 9.05216 7.71449 9.87224 7.27832 10.7739H8.73904C9.29887 9.81894 10.0509 8.99061 10.9422 8.34167Z" fill="#CBA400"/>
<path d="M15.6466 6.81268C11.2274 6.81268 7.64484 10.3952 7.64484 14.8145C7.64484 19.2338 11.2274 22.8162 15.6466 22.8162C20.0659 22.8162 23.6484 19.2337 23.6484 14.8144C23.6484 10.3951 20.066 6.81268 15.6466 6.81268ZM15.6466 21.6707C11.86 21.6707 8.79032 18.6011 8.79032 14.8144C8.79032 11.0278 11.86 7.95812 15.6466 7.95812C19.4333 7.95812 22.5029 11.0278 22.5029 14.8144C22.5029 18.6011 19.4333 21.6707 15.6466 21.6707Z" fill="#EEBF00"/>
<path d="M15.6467 7.95807C11.86 7.95807 8.79034 11.0277 8.79034 14.8144C8.79034 18.601 11.86 21.6707 15.6467 21.6707C19.4333 21.6707 22.503 18.601 22.503 14.8144C22.503 11.0277 19.4334 7.95807 15.6467 7.95807ZM15.6467 19.1761C13.2378 19.1761 11.285 17.2233 11.285 14.8145C11.285 12.4057 13.2378 10.4529 15.6467 10.4529C18.0555 10.4529 20.0083 12.4057 20.0083 14.8145C20.0083 17.2233 18.0556 19.1761 15.6467 19.1761Z" fill="#FED322"/>
<path d="M15.6467 19.1763C18.0556 19.1763 20.0084 17.2236 20.0084 14.8147C20.0084 12.4058 18.0556 10.453 15.6467 10.453C13.2378 10.453 11.285 12.4058 11.285 14.8147C11.285 17.2236 13.2378 19.1763 15.6467 19.1763Z" fill="#EEBF00"/>
<path d="M15.6466 6.81268C11.2274 6.81268 7.64484 10.3952 7.64484 14.8145C7.64484 19.2338 11.2274 22.8162 15.6466 22.8162C20.0659 22.8162 23.6484 19.2337 23.6484 14.8144C23.6484 10.3951 20.066 6.81268 15.6466 6.81268ZM15.6466 21.6707C11.86 21.6707 8.79032 18.6011 8.79032 14.8144C8.79032 11.0278 11.86 7.95812 15.6466 7.95812C19.4333 7.95812 22.5029 11.0278 22.5029 14.8144C22.5029 18.6011 19.4333 21.6707 15.6466 21.6707Z" fill="#EEBF00"/>
<path d="M15.6467 10.1012C13.0478 10.1012 10.9335 12.2155 10.9335 14.8144C10.9335 17.4132 13.0478 19.5276 15.6467 19.5276C18.2455 19.5276 20.3598 17.4132 20.3598 14.8144C20.3598 12.2155 18.2456 10.1012 15.6467 10.1012ZM15.6467 18.8245C13.4355 18.8245 11.6366 17.0256 11.6366 14.8145C11.6366 12.6033 13.4355 10.8044 15.6467 10.8044C17.8578 10.8044 19.6567 12.6033 19.6567 14.8145C19.6567 17.0256 17.8578 18.8245 15.6467 18.8245Z" fill="black"/>
<path d="M17.1372 14.9254C17.0008 14.8145 16.8344 14.7221 16.638 14.6481C16.4458 14.5758 16.2323 14.508 15.9982 14.4444V13.2224C16.0256 13.228 16.0528 13.2338 16.08 13.2407C16.2232 13.2778 16.3561 13.3229 16.4786 13.3759C16.601 13.4291 16.705 13.4834 16.7906 13.5389C16.876 13.5943 16.935 13.6383 16.9673 13.6706L17.3902 12.8941C17.1729 12.7463 16.9188 12.618 16.6276 12.5094C16.4306 12.4359 16.2206 12.3879 15.9981 12.3641V11.5862H15.295V12.3738C15.1832 12.3906 15.075 12.4148 14.9707 12.447C14.7534 12.514 14.5627 12.6122 14.3987 12.7416C14.2346 12.871 14.1064 13.0328 14.014 13.2269C13.9214 13.421 13.8753 13.6428 13.8753 13.8924C13.8753 14.082 13.9041 14.2449 13.962 14.3811C14.0197 14.5175 14.1064 14.6376 14.222 14.7416C14.3374 14.8456 14.4819 14.9357 14.6552 15.012C14.8285 15.0883 15.0331 15.1588 15.2688 15.2235C15.2777 15.226 15.2861 15.2284 15.295 15.231V16.451C15.2631 16.4443 15.2311 16.4379 15.1994 16.4297C15.0192 16.3836 14.8551 16.3269 14.7073 16.2598C14.5593 16.1929 14.431 16.1259 14.3225 16.0588C14.2138 15.9918 14.1388 15.9375 14.0972 15.8958L13.6743 16.7208C13.9608 16.9242 14.2844 17.0813 14.6449 17.1922C14.8599 17.2584 15.0767 17.3044 15.295 17.3311V18.1284H15.9981V17.3468C16.1461 17.3344 16.2904 17.3126 16.43 17.2789C16.6495 17.2258 16.8436 17.1414 17.0123 17.0259C17.181 16.9104 17.315 16.7589 17.4144 16.5718C17.5138 16.3846 17.5635 16.1593 17.5635 15.8959C17.5635 15.6695 17.5264 15.4788 17.4526 15.3239C17.3786 15.1692 17.2734 15.0363 17.1372 14.9254ZM15.1441 14.1697C15.0516 14.1189 14.9811 14.06 14.9326 13.9929C14.8841 13.926 14.8598 13.8416 14.8598 13.7399C14.8598 13.5643 14.9245 13.428 15.0539 13.3309C15.1179 13.2829 15.1984 13.2469 15.2951 13.2226V14.2401C15.2392 14.2177 15.1887 14.1943 15.1441 14.1697ZM15.9982 16.4842V15.4432C16.0712 15.4703 16.1382 15.4987 16.1978 15.5285C16.3087 15.584 16.3941 15.6488 16.4543 15.7226C16.5143 15.7966 16.5444 15.8867 16.5444 15.993C16.5444 16.2734 16.3619 16.4368 15.9982 16.4842Z" fill="black"/>
<path d="M15.2935 0.833144L15.2983 4.2583L16.0015 4.25732L15.9967 0.83216L15.2935 0.833144Z" fill="black"/>
<path d="M19.145 5.01897L19.7836 5.31329L21.2174 2.20252L20.5788 1.9082L19.145 5.01897Z" fill="black"/>
<path d="M10.0761 2.21775L11.5184 5.32428L12.1561 5.02819L10.7138 1.92166L10.0761 2.21775Z" fill="black"/>
<path d="M24 14.8144C24 10.2084 20.2527 6.46106 15.6466 6.46106C13.8563 6.46106 12.1958 7.02745 10.8346 7.99012H1.40831V10.4404H0V10.7829V13.2331V13.5757H0.58275V15.2364H0V18.3717H1.1655V20.0325H0.339938V23.1678H15.5587L15.629 23.1675C15.6349 23.1675 15.6407 23.1678 15.6466 23.1678C15.6565 23.1678 15.6663 23.1674 15.6762 23.1674L15.9102 23.1667V23.1632C20.3948 23.0234 24 19.3322 24 14.8144ZM7.35689 13.7842C7.35098 13.8322 7.34545 13.8803 7.34034 13.9285C7.338 13.9507 7.33575 13.9728 7.33355 13.995C7.32914 14.0402 7.32516 14.0855 7.32145 14.1308C7.32 14.1489 7.31827 14.1671 7.31691 14.1853C7.31241 14.2457 7.30861 14.3062 7.30538 14.3666C7.30434 14.3862 7.30355 14.4058 7.30266 14.4253C7.3005 14.4716 7.29877 14.5178 7.29736 14.5641C7.2968 14.5838 7.29614 14.6036 7.29572 14.6234C7.29427 14.687 7.29328 14.7507 7.29328 14.8144C7.29328 14.9559 7.29689 15.0966 7.30387 15.2364H7.10517V13.5757H7.38483C7.37658 13.6312 7.36898 13.6868 7.36186 13.7425C7.36012 13.7564 7.35863 13.7703 7.35689 13.7842ZM3.27567 15.9395V17.6686H1.92689V15.9395H3.27567ZM1.98023 20.0325V18.3717H3.32906V20.0325H1.98023ZM5.32758 15.9395V17.6686H3.9788V15.9395H5.32758ZM4.03214 20.0325V18.3717H5.38097V20.0325H4.03214ZM6.08409 20.0325V18.3717H7.43287V20.0325H6.08409ZM8.136 20.0325V18.4715C8.40703 19.0277 8.73694 19.5502 9.12356 20.0325H8.136ZM7.28597 17.6686H6.03075V15.9395H7.28677L7.28597 17.6686ZM5.05331 15.2364V13.5757H6.40214V15.2364H5.05331ZM2.75508 12.8726V11.1435H4.10386V12.8726H2.75508ZM6.15577 11.1435V12.8726H4.80694V11.1435H6.15577ZM6.85889 12.8726V11.1435H8.14153C7.87078 11.6956 7.6628 12.2745 7.52044 12.8726H6.85889ZM8.54048 10.4223H7.72561V8.69325H8.7345V10.1246C8.66813 10.2225 8.60297 10.3213 8.54048 10.4223ZM7.02248 10.4223H5.6737V8.69325H7.02253L7.02248 10.4223ZM4.97058 10.4223H3.62175V8.69325H4.97058V10.4223ZM2.05195 12.8726H0.703125V11.1435H2.05195V12.8726ZM4.35019 13.5757V15.2364H3.00136V13.5757H4.35019ZM3.4747 20.7356V22.4647H2.12592V20.7356H3.4747ZM4.17783 20.7356H5.52661V22.4647H4.17783V20.7356ZM6.22973 20.7356H7.57856V22.4647H6.22973V20.7356ZM8.28169 20.7356H9.63052V22.4647H8.28169V20.7356ZM10.3336 21.2608C10.7557 21.6099 11.2074 21.9137 11.6824 22.1705V22.4647H10.3336V21.2608ZM9.43758 9.22692V8.69325H9.96206C9.77878 8.86322 9.60441 9.04167 9.43758 9.22692ZM2.11144 8.69325H2.91867V10.4223H2.11144V8.69325ZM1.28587 13.5757H2.29828V15.2364H1.28587V13.5757ZM0.703125 17.6686V15.9395H1.22377V17.6686H1.1655H0.703125ZM1.04306 20.7356H1.1655H1.4228V22.4647H1.04306V20.7356ZM15.6547 22.4645L15.5625 22.4635C15.4365 22.4622 15.3109 22.4577 15.186 22.4504C15.182 22.4501 15.178 22.4498 15.174 22.4496C15.1172 22.4461 15.0605 22.4421 15.0039 22.4374C14.9917 22.4363 14.9795 22.4352 14.9673 22.4341C14.9197 22.4299 14.8721 22.4254 14.8247 22.4204C14.7995 22.4176 14.7745 22.4147 14.7494 22.4117C14.7156 22.4078 14.6817 22.4038 14.648 22.3995C14.6043 22.3937 14.5607 22.3875 14.5172 22.3811C14.5026 22.379 14.488 22.377 14.4734 22.3747C11.1899 21.8672 8.58909 19.2642 8.08505 15.9795C8.08481 15.9779 8.08458 15.9763 8.08434 15.9747C8.07558 15.9173 8.06756 15.8597 8.06006 15.8018C8.05898 15.7934 8.05786 15.7851 8.05683 15.7767C8.04952 15.7187 8.04281 15.6605 8.03681 15.602L8.03447 15.5774C8.03269 15.5594 8.03128 15.5412 8.02964 15.5231C8.025 15.4728 8.02059 15.4225 8.01694 15.3721C8.01633 15.364 8.01595 15.3558 8.01539 15.3477C8.01164 15.2938 8.00827 15.2399 8.00564 15.1861C8.00498 15.1725 8.00466 15.1587 8.00409 15.145C8.00203 15.0972 8.00006 15.0493 7.99889 15.0016C7.99739 14.9393 7.9965 14.877 7.9965 14.8144C7.9965 14.7496 7.99734 14.685 7.99894 14.6206C7.99983 14.5858 8.00147 14.5509 8.00283 14.5161C8.00395 14.4868 8.0047 14.4574 8.0062 14.4282C8.00822 14.388 8.01103 14.348 8.01366 14.3078C8.01525 14.2837 8.01647 14.2596 8.01825 14.2356C8.02106 14.1981 8.02467 14.1606 8.02805 14.1232C8.03048 14.0962 8.03255 14.0692 8.03522 14.0424C8.03822 14.0123 8.04192 13.9823 8.0453 13.9522C8.04923 13.9175 8.05284 13.8826 8.05725 13.848C8.05964 13.8291 8.0625 13.8103 8.06503 13.7914C8.07127 13.7451 8.07745 13.6988 8.08448 13.6528C8.08523 13.6478 8.08613 13.6429 8.08687 13.638C8.65444 9.97617 11.8283 7.16414 15.6466 7.16414C19.865 7.16414 23.2969 10.596 23.2969 14.8144C23.2969 19.0301 19.8694 22.4601 15.6547 22.4645Z" fill="black"/>
<path d="M22.8522 14.6287C22.7549 10.8015 19.6597 7.70616 15.8324 7.60885C15.7707 7.60726 15.7088 7.60651 15.6466 7.60651C15.5845 7.60651 15.5226 7.6073 15.4609 7.60885C11.6337 7.70616 8.53838 10.8014 8.44106 14.6287C8.43947 14.6904 8.43872 14.7523 8.43872 14.8144C8.43872 14.8765 8.43952 14.9385 8.44106 15.0002C8.53838 18.8274 11.6336 21.9227 15.4609 22.02C15.5226 22.0216 15.5845 22.0224 15.6466 22.0224C15.7088 22.0224 15.7707 22.0216 15.8324 22.02C19.6596 21.9227 22.7549 18.8275 22.8522 15.0002C22.8538 14.9385 22.8546 14.8765 22.8546 14.8144C22.8546 14.7523 22.8538 14.6904 22.8522 14.6287ZM15.6466 21.3192C12.0599 21.3192 9.14185 18.4012 9.14185 14.8144C9.14185 11.2276 12.0599 8.30958 15.6466 8.30958C19.2334 8.30958 22.1514 11.2276 22.1514 14.8144C22.1514 18.4012 19.2334 21.3192 15.6466 21.3192Z" fill="black"/>
</g>
<defs>
<clipPath id="clip0_1677_4085">
<rect width="24" height="24" fill="white"/>
</clipPath>
</defs>
</svg>
