<svg width="48" height="48" viewBox="0 0 48 48" fill="none" xmlns="http://www.w3.org/2000/svg">
<g opacity="0.2">
<path d="M24.3737 6.81722L24.1444 6.28219L23.904 5.7211L22.4034 2.21851L0.929138 11.419L15.2233 44.7818L17.4915 43.81L19.2617 43.0517L21.5175 42.0852L36.6975 35.5814L24.3737 6.81722Z" fill="#C6C5CB"/>
<path d="M24.3737 6.81722L24.1444 6.28219L23.904 5.7211L22.4034 2.21851L11.6324 6.83326L25.9942 40.1672L36.6975 35.5814L24.3737 6.81722Z" fill="#E0E0E2"/>
<path d="M39.6416 8.77441L39.2061 43.3032L26.6285 43.1447L39.7969 45.874L47.1634 10.3334L39.6416 8.77441Z" fill="#57565C"/>
<path d="M32.06 6.91406L32.1154 7.21425L38.1576 40.0014L24.0278 42.6053L21.4567 43.0792L26.6285 43.1445L39.2061 43.303L39.6416 8.77425L39.6638 7.00997L32.06 6.91406Z" fill="#898890"/>
<path d="M32.1154 7.2143L32.0601 6.91411L31.5795 4.30664L24.4373 5.62289L24.275 5.6528L23.9041 5.72114L24.1446 6.28223L24.3738 6.81727L36.6977 35.5815L21.5175 42.0852L19.2617 43.0516L17.8286 43.6656C17.7837 43.6848 17.8041 43.7524 17.8523 43.7435L21.4567 43.0792L24.0279 42.6053L38.1577 40.0014L32.1154 7.2143Z" fill="#C6C5CB"/>
<path d="M21.6054 20.9496C21.4449 21.0183 21.292 21.0972 21.1466 21.1847C21.0969 21.2146 21.0345 21.1709 21.0466 21.1141C21.216 20.3158 21.1334 19.4553 20.7478 18.6556C19.9102 16.9185 17.8699 16.0689 16.0486 16.7028C13.9295 17.4402 12.9111 19.8002 13.7779 21.828C14.0997 22.5811 14.6346 23.1772 15.2818 23.5775C15.3312 23.6081 15.3199 23.6834 15.2638 23.6987C15.1 23.7433 14.9374 23.7992 14.7768 23.8678C12.7852 24.7189 11.9062 27.0853 12.9099 29.0469C13.7794 30.7463 15.8287 31.5243 17.6089 30.8356C19.3071 30.1786 20.2425 28.4409 19.9697 26.7353C19.9587 26.6666 20.0467 26.629 20.0888 26.6844C21.133 28.0604 23.0353 28.5853 24.6838 27.8121C26.4121 27.0015 27.2661 24.9827 26.6388 23.1798C25.9147 21.0986 23.5969 20.0986 21.6054 20.9496Z" fill="#3E3D43"/>
<path d="M40.3462 46.7107L48 9.78409L40.3566 8.19981L40.3804 6.31149L32.6505 6.2139L32.1471 3.48231L24.3318 4.92268L22.7751 1.28931L0 11.0473L14.8515 45.7112L17.7951 44.4499C17.8112 44.451 17.8273 44.4521 17.8436 44.4521L17.9168 44.4512L21.5168 43.7878L26.5514 43.8512L40.3462 46.7107ZM23.5924 41.9661L36.7604 36.3243L37.3334 39.4338L23.5924 41.9661ZM37.0384 40.9275L38.5319 40.6522L38.5075 42.5867L28.7056 42.463L37.0384 40.9275ZM33.9772 43.9451L38.4638 44.0016L39.4596 44.0142L39.2474 45.0375L33.9772 43.9451ZM46.3268 10.8827L39.9338 41.7263L40.0637 31.4339L40.3386 9.64149L46.3268 10.8827ZM38.9472 7.70893L38.5615 38.2891L32.9121 7.63262L38.9472 7.70893ZM31.0118 5.13081L31.2081 6.19562L35.9865 32.1248L31.2517 21.0736L24.9034 6.25656L31.0118 5.13081ZM1.85841 11.7908L22.0315 3.14781L22.9047 5.18584L35.7683 35.2097L17.5499 43.0153C17.5497 43.0154 17.5494 43.0155 17.5492 43.0156L15.5952 43.8528L1.85841 11.7908Z" fill="black"/>
<path d="M17.8643 31.4956C18.9788 31.0644 19.84 30.2129 20.3144 29.1781L21.6002 32.1868L19.6088 33.038L20.165 34.3395L25.4493 32.0812L24.8931 30.7796L22.9016 31.6308L21.6183 28.6278C22.0859 28.7909 22.5817 28.878 23.0855 28.8781C23.0855 28.8781 23.0856 28.8781 23.0858 28.8781C23.7438 28.8781 24.3826 28.735 24.9843 28.4529C27.0275 27.4945 28.0478 25.0763 27.3071 22.9473C26.681 21.1475 24.983 19.9382 23.0817 19.9382C22.657 19.9382 22.2393 19.9981 21.8344 20.1167C21.8075 19.5093 21.6567 18.9115 21.3851 18.3481C20.6346 16.7915 19.0262 15.7856 17.2876 15.7856C16.785 15.7856 16.2899 15.8694 15.8158 16.0344C14.61 16.4539 13.663 17.3254 13.1493 18.4883C12.6426 19.635 12.6345 20.9538 13.1269 22.1062C13.3432 22.6124 13.6447 23.0682 14.0176 23.4582C13.1132 23.9825 12.4104 24.8158 12.0518 25.8075C11.626 26.985 11.7069 28.25 12.2797 29.3694C13.0331 30.8419 14.5983 31.7936 16.2673 31.7936C16.8161 31.7935 17.3534 31.6931 17.8643 31.4956ZM13.5398 28.7246C13.1477 27.9582 13.0919 27.0932 13.3828 26.2887C13.674 25.4835 14.2677 24.8548 15.0549 24.5184C15.1807 24.4646 15.3135 24.4184 15.449 24.3816C15.7467 24.3008 15.968 24.0511 16.0125 23.7457C16.057 23.4404 15.9164 23.1382 15.6539 22.9756C15.106 22.6367 14.6822 22.1438 14.4284 21.5499C14.0845 20.7453 14.0902 19.8611 14.444 19.0602C14.7974 18.2602 15.4498 17.6603 16.281 17.3711C16.6052 17.2583 16.9439 17.201 17.2876 17.201C18.4862 17.201 19.5941 17.8926 20.1101 18.9627C20.4142 19.5934 20.4985 20.2864 20.3541 20.9669C20.3054 21.1964 20.362 21.4323 20.5094 21.6144C20.6575 21.7973 20.8771 21.902 21.112 21.902C21.2525 21.902 21.3906 21.8636 21.5112 21.7909C21.6317 21.7182 21.7569 21.6543 21.8831 21.6002C22.2661 21.4366 22.6693 21.3536 23.0815 21.3536C24.3808 21.3536 25.5416 22.181 25.9701 23.4123C26.4757 24.8655 25.7785 26.5166 24.383 27.1714C23.9709 27.3646 23.5344 27.4627 23.0856 27.4627H23.0854C22.1349 27.4626 21.2253 27.0118 20.6524 26.2569C20.5045 26.0621 20.2799 25.9501 20.0362 25.9501C19.8084 25.9501 19.593 26.0495 19.4453 26.2227C19.2984 26.395 19.2347 26.6225 19.2705 26.8472C19.4964 28.2587 18.6899 29.6585 17.3532 30.1756C17.0059 30.31 16.6405 30.3781 16.2671 30.3781C15.1244 30.3781 14.0536 29.729 13.5398 28.7246Z" fill="black"/>
<path d="M5.28992 12.1406L5.54426 16.8497L6.50829 16.4379L6.42842 15.3932L7.69657 14.8514L8.40204 15.6288L9.36607 15.217L6.1391 11.7778L5.28992 12.1406ZM7.26467 14.269L6.30064 14.6808L6.17304 13.0321L7.26467 14.269Z" fill="black"/>
</g>
</svg>
