<svg width="32" height="32" viewBox="0 0 32 32" fill="none" xmlns="http://www.w3.org/2000/svg">
<mask id="mask0_1677_5322" style="mask-type:luminance" maskUnits="userSpaceOnUse" x="1" y="1" width="30" height="30">
<path d="M16 29.3332C23.364 29.3332 29.3333 23.3638 29.3333 15.9998C29.3333 8.63584 23.364 2.6665 16 2.6665C8.63596 2.6665 2.66663 8.63584 2.66663 15.9998C2.66663 23.3638 8.63596 29.3332 16 29.3332Z" stroke="white" stroke-width="2"/>
<path d="M16 29.3332C23.364 29.3332 29.3333 23.3638 29.3333 15.9998C29.3333 8.63584 23.364 2.6665 16 2.6665C8.63596 2.6665 2.66663 8.63584 2.66663 15.9998C2.66663 23.3638 8.63596 29.3332 16 29.3332Z" fill="white" stroke="white" stroke-width="2" stroke-linejoin="round"/>
<path d="M22 18L16 12L10 18" stroke="black" stroke-width="2" stroke-linecap="round" stroke-linejoin="round"/>
</mask>
<g mask="url(#mask0_1677_5322)">
<path d="M0 0H32V32H0V0Z" fill="#34C759"/>
</g>
</svg>
